<?xml version="1.0" encoding="utf-8"?>
<!-- Generator: Adobe Illustrator 19.0.0, SVG Export Plug-In . SVG Version: 6.00 Build 0)  -->
<svg version="1.1" id="Layer_1" xmlns="http://www.w3.org/2000/svg" xmlns:xlink="http://www.w3.org/1999/xlink" x="0px" y="0px"
	 viewBox="94 168 800 458" style="enable-background:new 94 168 800 458;" xml:space="preserve">
<style type="text/css">
	.st0{fill:none;stroke:#404040;stroke-width:4;stroke-miterlimit:10;}
	.st1{fill:#DCE775;stroke:#404040;stroke-width:4;stroke-miterlimit:10;}
	.st2{fill:#AFB42B;stroke:#404040;stroke-width:4;stroke-miterlimit:10;}
	.st3{fill:#B3E3FF;stroke:#404040;stroke-width:4;stroke-miterlimit:10;}
	.st4{fill:#F5F9A2;stroke:#404040;stroke-width:4;stroke-miterlimit:10;}
	.st5{fill:#DCE775;stroke:#404040;stroke-width:4;stroke-linecap:round;stroke-linejoin:round;stroke-miterlimit:10;}
	.st6{fill:#AFB42B;stroke:#404040;stroke-width:4;stroke-linecap:round;stroke-linejoin:round;stroke-miterlimit:10;}
	.st7{fill:#F5F9A2;stroke:#404040;stroke-width:4;stroke-linecap:round;stroke-linejoin:round;stroke-miterlimit:10;}
	.st8{fill:#404040;}
	.st9{fill:none;stroke:#404040;stroke-width:4;stroke-linecap:round;stroke-linejoin:round;stroke-miterlimit:10;}
	.st10{font-family:'MyriadPro-Regular';}
	.st11{font-size:18px;}
</style>
<g id="git_x5F_branch_x5F_1">
	<path class="st0" d="M242.2,355.3c0,22.6-18.4,41-41,41 M242.2,355.3c0-22.6,18.4-41,41-41h22.4"/>
	<circle class="st1" cx="326.6" cy="314.3" r="21"/>
	<path class="st0" d="M522.9,437.3c0-22.6-18.4-41-41-41 M522.9,437.3c0,22.6,18.4,41,41,41h214.4"/>
	<circle class="st2" cx="607.2" cy="478.3" r="21"/>
	<circle class="st2" cx="703.2" cy="478.3" r="21"/>
	<circle class="st2" cx="799.2" cy="478.3" r="21"/>
	<path class="st3" d="M169.2,396.3h417"/>
	<circle class="st4" cx="148.2" cy="396.3" r="21"/>
	<circle class="st4" cx="325.6" cy="396.3" r="21"/>
	<circle class="st4" cx="422.6" cy="396.3" r="21"/>
	<circle class="st4" cx="607.2" cy="396.3" r="21"/>
	<path class="st5" d="M259,181.1h133.1v50H259V181.1z"/>
	<path class="st6" d="M737.6,561.4h123.2v50H737.6V561.4z"/>
	<path class="st7" d="M560.3,254.8h93.8v50h-93.8V254.8z"/>
	<path class="st8" d="M592.9,285.8v-8.3l-3.6,8.3H588l-3.6-8.3v8.3h-1.5v-10.6h2l3.7,8.7l3.8-8.7h2v10.6H592.9z M599.3,281.7
		l1.9-0.3c0.4-0.1,0.6-0.3,0.6-0.5c0-0.7-0.5-1.3-1.6-1.3c-1,0-1.5,0.6-1.6,1.5l-1.4-0.3c0.2-1.4,1.4-2.3,3-2.3c2.2,0,3,1.2,3,2.6
		v3.6c0,0.6,0.1,1,0.1,1.2H602c0-0.2-0.1-0.5-0.1-1c-0.3,0.5-1,1.2-2.3,1.2c-1.5,0-2.4-1-2.4-2.2
		C597.1,282.6,598.1,281.9,599.3,281.7L599.3,281.7z M601.8,282.7v-0.3l-2.2,0.3c-0.6,0.1-1,0.4-1,1.1c0,0.5,0.4,1,1.2,1
		C600.9,284.8,601.8,284.3,601.8,282.7z M606.8,283.5c0.1,0.8,0.7,1.3,1.7,1.3c0.8,0,1.2-0.4,1.2-1c0-0.4-0.3-0.8-0.9-0.9l-1.2-0.3
		c-1.1-0.2-1.8-1-1.8-2c0-1.2,1.2-2.3,2.6-2.3c2,0,2.6,1.3,2.7,1.9l-1.2,0.5c-0.1-0.4-0.4-1.2-1.5-1.2c-0.7,0-1.2,0.5-1.2,1
		c0,0.4,0.3,0.8,0.8,0.9l1.2,0.3c1.3,0.3,2,1.1,2,2.1s-0.9,2.2-2.6,2.2c-2,0-2.8-1.3-2.9-2.1L606.8,283.5z M615.6,278.6h1.6v1.3
		h-1.6v3.8c0,0.7,0.3,1,1,1c0.2,0,0.4,0,0.6-0.1v1.2c-0.1,0-0.5,0.1-1,0.1c-1.2,0-2-0.8-2-2.1v-4h-1.4v-1.3h0.4
		c0.8,0,1.1-0.5,1.1-1.1v-1.2h1.3L615.6,278.6L615.6,278.6z M626,283.7c-0.4,1.3-1.6,2.3-3.2,2.3c-1.9,0-3.6-1.4-3.6-3.9
		c0-2.3,1.6-3.8,3.4-3.8c2.2,0,3.5,1.5,3.5,3.8v0.4h-5.4c0,1.3,1,2.2,2.2,2.2s1.8-0.6,2-1.5L626,283.7z M624.6,281.4
		c0-1-0.7-1.8-2-1.8c-1.2,0-1.9,0.9-2,1.8H624.6z M632.6,280H632c-1.2,0-2,0.6-2,2.2v3.6h-1.4v-7.2h1.4v1.3c0.5-1.1,1.4-1.4,2.2-1.4
		h0.5v1.5H632.6z"/>
	<path class="st9" d="M326.6,268.8v-23.5 M337.4,260.1l-10.8,10.8l-10.9-10.8 M607.2,351v-23.5 M618.1,342.3l-10.9,10.8l-10.9-10.8
		 M799.2,523.7v23.5 M788.3,532.4l10.9-10.9l10.9,10.9"/>
</g>
<text transform="matrix(1 0 0 1 281 213)" class="st10 st11">ÖZZELİK X</text>
<text transform="matrix(1 0 0 1 758 592)" class="st10 st11">ÖZELLİK Y</text>
</svg>
