<?xml version="1.0" encoding="utf-8"?>
<!-- Generator: Adobe Illustrator 19.0.0, SVG Export Plug-In . SVG Version: 6.00 Build 0)  -->
<svg version="1.1" id="Layer_1" xmlns="http://www.w3.org/2000/svg" xmlns:xlink="http://www.w3.org/1999/xlink" x="0px" y="0px"
	 viewBox="94 294 800 206" style="enable-background:new 94 294 800 206;" xml:space="preserve">
<style type="text/css">
	.st0{fill:none;stroke:#404040;stroke-width:4;stroke-linecap:round;stroke-linejoin:round;stroke-miterlimit:10;}
	.st1{fill:#FFFFFF;stroke:#404040;stroke-width:4;stroke-linejoin:round;stroke-miterlimit:10;}
	.st2{fill:#E64A19;stroke:#404040;stroke-width:4;stroke-linecap:round;stroke-linejoin:round;stroke-miterlimit:10;}
	.st3{fill:none;stroke:#404040;stroke-width:4;stroke-miterlimit:10;}
	.st4{fill:#FF8A65;stroke:#404040;stroke-width:4;stroke-miterlimit:10;}
	.st5{font-family:'MyriadPro-Regular';}
	.st6{font-size:14px;}
</style>
<g id="git_x5F_add">
	<path class="st0" d="M608.9,387.5h-35.5 M600.2,376.7l10.9,10.8l-10.9,10.9 M457,387.5h-35.4 M448.3,376.7l10.9,10.8l-10.9,10.9"/>
	<path class="st1" d="M358.3,306.1v35.2h36.3v77.2h-85.4V306.1H358.3"/>
	<path class="st2" d="M358.3,306.1l36.3,35.2h-36.3V306.1z"/>
	<path class="st1" d="M331.8,331.4v35.1h36.3v77.2h-85.4V331.4H331.8"/>
	<path class="st2" d="M331.8,331.4l36.3,35.2l-36.3-0.1V331.4z"/>
	<path class="st1" d="M305.3,356.6v35.1h36.3v77.2h-85.4V356.6L305.3,356.6"/>
	<path class="st2" d="M305.3,356.6l36.3,35.2l-36.3-0.1V356.6z"/>
	<path class="st1" d="M637.1,294h94.7v187h-94.7V294z"/>
	<path class="st3" d="M684.4,337.5v100.1"/>
	<circle class="st4" cx="684.4" cy="437.6" r="18"/>
	<circle class="st4" cx="684.4" cy="387.5" r="18"/>
	<circle class="st4" cx="684.4" cy="337.5" r="18"/>
	<circle class="st4" cx="516.4" cy="387.5" r="30"/>
</g>
<text transform="matrix(1 0 0 1 262.0003 494.667)" class="st5 st6">working dir</text>
<text transform="matrix(1 0 0 1 496.667 494.667)" class="st5 st6">stage</text>
<text transform="matrix(1 0 0 1 666.3997 497.3333)" class="st5 st6">HEAD</text>
</svg>
