<?xml version="1.0" encoding="utf-8"?>
<!-- Generator: Adobe Illustrator 19.0.0, SVG Export Plug-In . SVG Version: 6.00 Build 0)  -->
<svg version="1.1" id="Layer_1" xmlns="http://www.w3.org/2000/svg" xmlns:xlink="http://www.w3.org/1999/xlink" x="0px" y="0px"
	 viewBox="94 192 800 410" style="enable-background:new 94 192 800 410;" xml:space="preserve">
<style type="text/css">
	.st0{fill:#F9F0B2;stroke:#404040;stroke-width:4;stroke-miterlimit:10;}
	.st1{fill:#FFFFFF;stroke:#404040;stroke-width:4;stroke-miterlimit:10;}
	.st2{fill:none;stroke:#404040;stroke-width:4;stroke-linecap:round;stroke-linejoin:round;stroke-miterlimit:10;}
	.st3{fill:#FFF176;stroke:#404040;stroke-width:4;stroke-linecap:round;stroke-linejoin:round;stroke-miterlimit:10;}
	.st4{fill:#FFFFFF;stroke:#404040;stroke-width:4;stroke-linecap:round;stroke-linejoin:round;stroke-miterlimit:10;}
	.st5{fill:#FBC02D;stroke:#404040;stroke-width:4;stroke-miterlimit:10;}
	.st6{fill:#B18BE8;stroke:#404040;stroke-width:4;stroke-miterlimit:10;}
	.st7{fill:#FFFFFF;stroke:#59AFE1;stroke-width:4;stroke-miterlimit:10;}
	.st8{font-family:'MyriadPro-Regular';}
	.st9{font-size:18px;}
</style>
<g id="git_x5F_remote">
	<path id="repo1_146_" class="st0" d="M431.5,316.5c0-12.4,28.2-22.4,63-22.4s63,10,63,22.4 M431.5,316.5v27.9c0,3,1.7,5.9,4.7,8.5
		c9.4,8.2,32,13.9,58.3,13.9c26.4,0,48.9-5.8,58.3-13.9c3-2.6,4.7-5.5,4.7-8.5v-27.9"/>
	<path class="st1" d="M557.5,316.5c0,12.4-28.2,22.4-63,22.4s-63-10-63-22.4c0-12.4,28.2-22.4,63-22.4S557.5,304.1,557.5,316.5z"/>
	<path id="repo1_145_" class="st0" d="M431.5,288.6c0-12.4,28.2-22.4,63-22.4s63,10,63,22.4 M431.5,288.6v27.9c0,3,1.7,5.9,4.7,8.5
		c9.4,8.2,32,13.9,58.3,13.9c26.4,0,48.9-5.8,58.3-13.9c3-2.6,4.7-5.5,4.7-8.5v-27.9"/>
	<path class="st1" d="M557.5,288.6c0,12.4-28.2,22.4-63,22.4s-63-10-63-22.4s28.2-22.4,63-22.4S557.5,276.2,557.5,288.6z"/>
	<path id="repo1_144_" class="st0" d="M431.5,260.7c0-12.4,28.2-22.4,63-22.4s63,10,63,22.4 M431.5,260.7v27.9c0,3,1.7,5.9,4.7,8.5
		c9.4,8.2,32,13.9,58.3,13.9c26.4,0,48.9-5.8,58.3-13.9c3-2.6,4.7-5.5,4.7-8.5v-27.9"/>
	<path class="st1" d="M557.5,260.7c0,12.4-28.2,22.4-63,22.4s-63-10-63-22.4c0-12.4,28.2-22.4,63-22.4S557.5,248.3,557.5,260.7z"/>
	<path id="repo1_143_" class="st0" d="M431.5,232.8c0-12.4,28.2-22.4,63-22.4s63,10,63,22.4 M431.5,232.8v27.9c0,3,1.7,5.9,4.7,8.5
		c9.4,8.2,32,13.9,58.3,13.9c26.4,0,48.9-5.8,58.3-13.9c3-2.6,4.7-5.5,4.7-8.5v-27.9"/>
	<path class="st1" d="M557.5,232.8c0,12.4-28.2,22.4-63,22.4s-63-10-63-22.4c0-12.4,28.2-22.4,63-22.4S557.5,220.4,557.5,232.8z"/>
	<path class="st2" d="M599.1,514.4c3.1,6.8,9.9,11.2,17.3,11.2c7.5,0,14.3-4.4,17.4-11.3"/>
	<path class="st3" d="M616,558.7c0,0,27.4,0.8,37.7-5.2c17-9.9-0.3-30.2-13.7-33.6c-4.1,7.7-13.3,13-24,13h0.3
		c-10.7,0-19.8-5.4-24-13c-13.4,3.4-30.7,23.8-13.7,33.6c10.3,6,37.7,5.2,37.7,5.2"/>
	<circle class="st3" cx="616.4" cy="489" r="23"/>
	<path class="st1" d="M627,476.8c2.6,20,7.9,2.4,11.8,17c-2.2,10.4-11.4,18.2-22.5,18.2c-12.7,0-23-10.3-23-23
		c0-1.3,0.1-2.6,0.3-3.9C594.8,485.2,619.9,496.2,627,476.8L627,476.8z"/>
	<path class="st2" d="M628.9,509.3v10.6 M604.3,519.9v-10.3"/>
	<path class="st4" d="M354.8,514.6c3.1,6.8,9.9,11.2,17.3,11.2c7.5,0,14.3-4.4,17.4-11.3"/>
	<path class="st5" d="M372.3,558.9c0,0,27.4,0.8,37.7-5.2c17-9.9-0.3-30.2-13.7-33.6c-4.1,7.7-13.3,13-24,13h0.3
		c-10.7,0-19.8-5.4-24-13c-13.4,3.4-30.7,23.8-13.7,33.6c10.3,6,37.7,5.2,37.7,5.2"/>
	<circle class="st5" cx="372.2" cy="489.2" r="23"/>
	<path class="st4" d="M382.2,468.5c-6.7,17.2-19.4,0.5-32.6,25.5c2.2,10.4,11.4,18.2,22.5,18.2c12.7,0,23-10.3,23-23
		C395.2,487.8,384.1,483.3,382.2,468.5z M384.7,508.5V520 M360.1,520.1v-11.3"/>
	<path class="st6" d="M349.2,489.7c0,0,0,10.6,4.6,14.5c-3.6,1.7-11.6-0.9-10.5-1.7C347.7,499.3,349.2,489.7,349.2,489.7
		L349.2,489.7z M395.2,489.2c0,0-0.2,11.1-4.8,15c3.6,1.7,11.6-0.9,10.5-1.7C396.4,499.3,395.2,489.2,395.2,489.2z"/>
	<path id="repo1_149_" class="st5" d="M220.6,523c0-6.3,14.2-11.3,31.8-11.3s31.8,5.1,31.8,11.3 M220.6,523v14.1
		c0,1.5,0.9,3,2.4,4.3c4.8,4.1,16.2,7,29.5,7c13.3,0,24.7-2.9,29.5-7c1.5-1.3,2.4-2.8,2.4-4.3V523"/>
	<path class="st7" d="M284.3,523c0,6.3-14.2,11.3-31.8,11.3s-31.8-5.1-31.8-11.3c0-6.3,14.2-11.3,31.8-11.3S284.3,516.7,284.3,523z"
		/>
	<path id="repo1_148_" class="st5" d="M220.6,508.9c0-6.3,14.2-11.3,31.8-11.3s31.8,5.1,31.8,11.3 M220.6,508.9V523
		c0,1.5,0.9,3,2.4,4.3c4.8,4.1,16.2,7,29.5,7c13.3,0,24.7-2.9,29.5-7c1.5-1.3,2.4-2.8,2.4-4.3v-14.1"/>
	<path class="st7" d="M284.3,508.9c0,6.3-14.2,11.3-31.8,11.3s-31.8-5.1-31.8-11.3c0-6.3,14.2-11.3,31.8-11.3
		S284.3,502.6,284.3,508.9z"/>
	<path id="repo1_147_" class="st5" d="M220.6,494.8c0-6.3,14.2-11.3,31.8-11.3s31.8,5.1,31.8,11.3 M220.6,494.8v14.1
		c0,1.5,0.9,3,2.4,4.3c4.8,4.1,16.2,7,29.5,7c13.3,0,24.7-2.9,29.5-7c1.5-1.3,2.4-2.8,2.4-4.3v-14.1"/>
	<path class="st1" d="M284.3,494.8c0,6.3-14.2,11.3-31.8,11.3s-31.8-5.1-31.8-11.3c0-6.3,14.2-11.3,31.8-11.3
		S284.3,488.5,284.3,494.8z"/>
	<path id="repo1_152_" class="st3" d="M703.7,523c0-6.3,14.2-11.3,31.8-11.3s31.8,5.1,31.8,11.3 M703.7,523v14.1
		c0,1.5,0.9,3,2.4,4.3c4.8,4.1,16.2,7,29.5,7s24.7-2.9,29.5-7c1.5-1.3,2.4-2.8,2.4-4.3V523"/>
	<path class="st7" d="M767.4,523c0,6.3-14.2,11.3-31.8,11.3s-31.8-5.1-31.8-11.3c0-6.3,14.2-11.3,31.8-11.3
		C753.1,511.6,767.4,516.7,767.4,523z"/>
	<path id="repo1_151_" class="st3" d="M703.7,508.9c0-6.3,14.2-11.3,31.8-11.3s31.8,5.1,31.8,11.3 M703.7,508.9V523
		c0,1.5,0.9,3,2.4,4.3c4.8,4.1,16.2,7,29.5,7s24.7-2.9,29.5-7c1.5-1.3,2.4-2.8,2.4-4.3v-14.1"/>
	<path class="st7" d="M767.4,508.9c0,6.3-14.2,11.3-31.8,11.3s-31.8-5.1-31.8-11.3c0-6.3,14.2-11.3,31.8-11.3
		C753.1,497.6,767.4,502.6,767.4,508.9z"/>
	<path id="repo1_150_" class="st3" d="M703.7,494.8c0-6.3,14.2-11.3,31.8-11.3s31.8,5.1,31.8,11.3 M703.7,494.8v14.1
		c0,1.5,0.9,3,2.4,4.3c4.8,4.1,16.2,7,29.5,7s24.7-2.9,29.5-7c1.5-1.3,2.4-2.8,2.4-4.3v-14.1"/>
	<path class="st1" d="M767.4,494.8c0,6.3-14.2,11.3-31.8,11.3s-31.8-5.1-31.8-11.3c0-6.3,14.2-11.3,31.8-11.3
		C753.1,483.5,767.4,488.5,767.4,494.8z"/>
	<path class="st2" d="M526.2,525.6h-65.5 M517.5,514.8l10.8,10.8l-10.8,10.9 M430.3,426.1l-22.1,22.1 M416.5,424.6h15.4V440"/>
	<text transform="matrix(1 0 0 1 314 588)" class="st8 st9">YEREL DEPON</text>
	<text transform="matrix(1 0 0 1 571.5289 588)" class="st8 st9">X’iN DEPOSU</text>
	<text transform="matrix(1 0 0 1 450 397)" class="st8 st9">UZAK DEPO</text>
	<text transform="matrix(1 0 0 1 589 249.4999)"><tspan x="0" y="0" class="st8 st9">github.com</tspan><tspan x="0" y="21.6" class="st8 st9">bitbucket.com</tspan></text>
</g>
</svg>
