<?xml version="1.0" encoding="utf-8"?>
<!-- Generator: Adobe Illustrator 19.0.0, SVG Export Plug-In . SVG Version: 6.00 Build 0)  -->
<svg version="1.1" id="Layer_1" xmlns="http://www.w3.org/2000/svg" xmlns:xlink="http://www.w3.org/1999/xlink" x="0px" y="0px"
	 viewBox="94 349 800 96" style="enable-background:new 94 349 800 96;" xml:space="preserve">
<style type="text/css">
	.st0{fill:#FFFFFF;stroke:#404040;stroke-width:4;stroke-linecap:round;stroke-linejoin:round;stroke-miterlimit:10;}
	.st1{fill:#FBC02D;stroke:#404040;stroke-width:4;stroke-linejoin:round;stroke-miterlimit:10;}
	.st2{fill:#F57F17;stroke:#404040;stroke-width:4;stroke-linecap:round;stroke-linejoin:round;stroke-miterlimit:10;}
	.st3{fill:none;stroke:#404040;stroke-width:4;stroke-linecap:round;stroke-linejoin:round;stroke-miterlimit:10;}
</style>
<g id="advanced_x5F_undoing_x5F_6_1_">
	<path class="st0" d="M350.1,419h287.8"/>
	<circle class="st0" cx="329.1" cy="419" r="21"/>
	<circle class="st1" cx="549" cy="419" r="21"/>
	<circle class="st0" cx="439" cy="419" r="21"/>
	<path class="st2" d="M677.9,440h-38c-1.1,0-2-0.9-2-2v-38c0-1.1,0.9-2,2-2h38c1.1,0,2,0.9,2,2v38C679.9,439.1,679,440,677.9,440z"
		/>
	<path class="st3" d="M670,408.1L659.1,419l-10.8-10.9 M648.3,429.9l10.8-10.9l10.9,10.9 M581.3,371.9H566v-15.4 M568,369.6
		c10-9.5,23.5-15.3,38.3-15.3s28.4,5.8,38.3,15.3"/>
</g>
</svg>
